<?xml version="1.0" encoding="UTF-8"?>
<svg version="1.1" xmlns="http://www.w3.org/2000/svg" width="46" height="39">
<path d="M0 0 C15.18 0 30.36 0 46 0 C46 12.87 46 25.74 46 39 C30.82 39 15.64 39 0 39 C0 26.13 0 13.26 0 0 Z " fill="#110B09" transform="translate(0,0)"/>
<path d="M0 0 C4.62 0 9.24 0 14 0 C14 12.87 14 25.74 14 39 C10.04 39 6.08 39 2 39 C2.969375 37.989375 3.93875 36.97875 4.9375 35.9375 C8.11659767 32.27218739 8.80436017 29.79317584 9 25 C8.278125 25.144375 7.55625 25.28875 6.8125 25.4375 C4.96519293 25.80696141 3.11049361 26.14151238 1.25 26.4375 C0.5075 26.623125 -0.235 26.80875 -1 27 C-1.33 27.66 -1.66 28.32 -2 29 C-3.32 29 -4.64 29 -6 29 C-5.67 27.35 -5.34 25.7 -5 24 C-7.97851562 24.09765625 -7.97851562 24.09765625 -10.95703125 24.1953125 C-13 24 -13 24 -16 22 C-16.33 21.01 -16.66 20.02 -17 19 C-19.64 19 -22.28 19 -25 19 C-24.505 17.515 -24.505 17.515 -24 16 C-22.02 16 -20.04 16 -18 16 C-18 15.34 -18 14.68 -18 14 C-16.35 14 -14.7 14 -13 14 C-13.33 13.34 -13.66 12.68 -14 12 C-14.99 11.67 -15.98 11.34 -17 11 C-17.125 8.625 -17.125 8.625 -17 6 C-14.60713116 3.60713116 -13.90552906 3.67949384 -10.625 3.625 C-7.23342779 3.69053763 -6.26087637 3.80911485 -3.4375 5.875 C-2 8 -2 8 -2 10 C-1.01 10 -0.02 10 1 10 C1 11.65 1 13.3 1 15 C4.3 15 7.6 15 11 15 C8.24579138 8.61413577 6.22336439 4.3287763 0 1 C0 0.67 0 0.34 0 0 Z " fill="#35383E" transform="translate(32,0)"/>
<path d="M0 0 C0.66 2.31 1.32 4.62 2 7 C7.33963223 5.8982041 7.33963223 5.8982041 11.375 2.375 C14.34047458 -0.30804843 14.99426887 -0.33037004 18.8125 -0.3125 C20.20993879 -0.23271149 21.60696395 -0.13657216 23 0 C23.8125 2.0625 23.8125 2.0625 24 5 C21.98264125 8.90078497 19.64956606 11.56695596 16 14 C12.05702323 14.4648447 8.09243699 14.37033791 4.125 14.375 C3.03574219 14.39949219 1.94648438 14.42398438 0.82421875 14.44921875 C-7.19052069 14.47864864 -7.19052069 14.47864864 -11.14453125 12.140625 C-16 6.53894737 -16 6.53894737 -16 3 C-10.62669111 -0.39366878 -6.13053511 -0.32712342 0 0 Z " fill="#08090A" transform="translate(18,25)"/>
<path d="M0 0 C3.96 0 7.92 0 12 0 C11.2575 0.53625 10.515 1.0725 9.75 1.625 C5.98119831 4.87987419 3.57597944 8.27206167 2 13 C2.99 13 3.98 13 5 13 C5 13.99 5 14.98 5 16 C5.99 16.33 6.98 16.66 8 17 C7.67 17.66 7.34 18.32 7 19 C10.96 18.505 10.96 18.505 15 18 C15.33 19.32 15.66 20.64 16 22 C19.63 22.66 23.26 23.32 27 24 C26.67 25.65 26.34 27.3 26 29 C26.99 29.33 27.98 29.66 29 30 C25.54970958 32.30019361 24.05445642 32.43132515 20 32 C18 29 18 29 18 25 C16.39504433 25.11442461 14.79101881 25.24194694 13.1875 25.375 C12.29417969 25.44460937 11.40085937 25.51421875 10.48046875 25.5859375 C7.75601501 25.86645036 7.75601501 25.86645036 5 28 C4.01 28 3.02 28 2 28 C2.76560456 29.2739902 3.53772626 30.54406512 4.3125 31.8125 C4.74175781 32.52019531 5.17101562 33.22789063 5.61328125 33.95703125 C7.1061312 36.29406572 7.1061312 36.29406572 10 39 C6.7 39 3.4 39 0 39 C0 26.13 0 13.26 0 0 Z " fill="#131716" transform="translate(0,0)"/>
<path d="M0 0 C0.7940625 0.00515625 1.588125 0.0103125 2.40625 0.015625 C3.2003125 0.01046875 3.994375 0.0053125 4.8125 0 C6.90625 0.265625 6.90625 0.265625 8.90625 2.265625 C8.90625 3.255625 8.90625 4.245625 8.90625 5.265625 C8.101875 5.53375 7.2975 5.801875 6.46875 6.078125 C5.623125 6.47 4.7775 6.861875 3.90625 7.265625 C3.57625 8.255625 3.24625 9.245625 2.90625 10.265625 C6.20625 9.935625 9.50625 9.605625 12.90625 9.265625 C12.96027274 11.36951069 12.99905256 13.47379214 13.03125 15.578125 C13.05445312 16.74988281 13.07765625 17.92164063 13.1015625 19.12890625 C12.90625 22.265625 12.90625 22.265625 10.90625 25.265625 C9.58625 25.265625 8.26625 25.265625 6.90625 25.265625 C7.23625 23.615625 7.56625 21.965625 7.90625 20.265625 C4.92773438 20.36328125 4.92773438 20.36328125 1.94921875 20.4609375 C-0.09375 20.265625 -0.09375 20.265625 -3.09375 18.265625 C-3.42375 17.275625 -3.75375 16.285625 -4.09375 15.265625 C-6.73375 15.265625 -9.37375 15.265625 -12.09375 15.265625 C-11.76375 14.275625 -11.43375 13.285625 -11.09375 12.265625 C-9.11375 12.265625 -7.13375 12.265625 -5.09375 12.265625 C-5.09375 11.605625 -5.09375 10.945625 -5.09375 10.265625 C-3.44375 10.265625 -1.79375 10.265625 -0.09375 10.265625 C-0.42375 9.605625 -0.75375 8.945625 -1.09375 8.265625 C-2.08375 7.935625 -3.07375 7.605625 -4.09375 7.265625 C-4.21875 4.890625 -4.21875 4.890625 -4.09375 2.265625 C-2.09375 0.265625 -2.09375 0.265625 0 0 Z " fill="#9B7D6F" transform="translate(19.09375,3.734375)"/>
<path d="M0 0 C0.33 0 0.66 0 1 0 C1 1.65 1 3.3 1 5 C2.32 5 3.64 5 5 5 C5.33 6.32 5.66 7.64 6 9 C5.34 9 4.68 9 4 9 C4 9.66 4 10.32 4 11 C8.70842624 8.88673474 8.70842624 8.88673474 12 5 C12.2226746 6.43534841 12.42761906 7.87345525 12.625 9.3125 C12.79902344 10.51326172 12.79902344 10.51326172 12.9765625 11.73828125 C13 14 13 14 11 17 C9.68 17 8.36 17 7 17 C7.33 15.35 7.66 13.7 8 12 C5.02148438 12.09765625 5.02148438 12.09765625 2.04296875 12.1953125 C0 12 0 12 -3 10 C-3.33 9.01 -3.66 8.02 -4 7 C-6.64 7 -9.28 7 -12 7 C-11.67 6.01 -11.34 5.02 -11 4 C-9.02 4 -7.04 4 -5 4 C-5 3.34 -5 2.68 -5 2 C-3.35 2 -1.7 2 0 2 C0 1.34 0 0.68 0 0 Z " fill="#8C6459" transform="translate(19,12)"/>
<path d="M0 0 C-0.33 1.65 -0.66 3.3 -1 5 C-0.01 5.33 0.98 5.66 2 6 C-1.45029042 8.30019361 -2.94554358 8.43132515 -7 8 C-9 5 -9 5 -9 1 C-14.94 1.495 -14.94 1.495 -21 2 C-20.67 1.01 -20.34 0.02 -20 -1 C-12.88221482 -2.12067256 -6.97579243 -1.7958955 0 0 Z " fill="#433431" transform="translate(27,24)"/>
<path d="M0 0 C0.66 1.32 1.32 2.64 2 4 C2.99 4 3.98 4 5 4 C5 5.65 5 7.3 5 9 C8.63 9 12.26 9 16 9 C16 9.99 16 10.98 16 12 C12.04 12 8.08 12 4 12 C3.67 11.34 3.34 10.68 3 10 C3.33 9.01 3.66 8.02 4 7 C0.7 7.33 -2.6 7.66 -6 8 C-5.67 6.68 -5.34 5.36 -5 4 C-3.35 3.67 -1.7 3.34 0 3 C0 2.01 0 1.02 0 0 Z " fill="#585A5C" transform="translate(28,6)"/>
<path d="M0 0 C3.96 0 7.92 0 12 0 C10.9171875 0.7425 10.9171875 0.7425 9.8125 1.5 C5.37967964 5.44028476 2.20364809 10.13875712 1 16 C2.32 16.33 3.64 16.66 5 17 C5 17.66 5 18.32 5 19 C3.35 19 1.7 19 0 19 C0 12.73 0 6.46 0 0 Z " fill="#35373D" transform="translate(0,0)"/>
<path d="M0 0 C3.96 0 7.92 0 12 0 C10.2 7.2 10.2 7.2 6 10 C5.01 10 4.02 10 3 10 C3 9.34 3 8.68 3 8 C3.66 8 4.32 8 5 8 C4.67 6.68 4.34 5.36 4 4 C2.68 4 1.36 4 0 4 C0 2.68 0 1.36 0 0 Z " fill="#D19B89" transform="translate(20,13)"/>
<path d="M0 0 C1.32 0.33 2.64 0.66 4 1 C3.01 1.33 2.02 1.66 1 2 C1.93188881 3.6074328 2.87074435 5.21082799 3.8125 6.8125 C4.33457031 7.70582031 4.85664062 8.59914063 5.39453125 9.51953125 C7.03599939 12.24540079 7.03599939 12.24540079 10 15 C6.7 15 3.4 15 0 15 C0 10.05 0 5.1 0 0 Z " fill="#35373C" transform="translate(0,24)"/>
<path d="M0 0 C0.99 0 1.98 0 3 0 C3.33 1.32 3.66 2.64 4 4 C3.34 4 2.68 4 2 4 C2 4.66 2 5.32 2 6 C6.70842624 3.88673474 6.70842624 3.88673474 10 0 C10.2226746 1.43534841 10.42761906 2.87345525 10.625 4.3125 C10.74101562 5.11300781 10.85703125 5.91351563 10.9765625 6.73828125 C11 9 11 9 9 12 C7.68 12 6.36 12 5 12 C5.33 10.35 5.66 8.7 6 7 C3.69 7 1.38 7 -1 7 C-1 6.34 -1 5.68 -1 5 C-0.34 5 0.32 5 1 5 C0.67 3.35 0.34 1.7 0 0 Z " fill="#967C67" transform="translate(21,17)"/>
<path d="M0 0 C1.79206547 0.14084796 3.58364917 0.28783701 5.375 0.4375 C6.87160156 0.55931641 6.87160156 0.55931641 8.3984375 0.68359375 C11 1 11 1 13 2 C13 3.32 13 4.64 13 6 C11.20841511 6.02696365 9.41671527 6.04637917 7.625 6.0625 C6.62726562 6.07410156 5.62953125 6.08570313 4.6015625 6.09765625 C2 6 2 6 0 5 C0 3.35 0 1.7 0 0 Z " fill="#242425" transform="translate(31,17)"/>
<path d="M0 0 C2 2 2 2 2 5 C2.66 5 3.32 5 4 5 C4 5.66 4 6.32 4 7 C0.7 7.33 -2.6 7.66 -6 8 C-5.67 6.68 -5.34 5.36 -5 4 C-3.35 3.67 -1.7 3.34 0 3 C0 2.01 0 1.02 0 0 Z " fill="#A27968" transform="translate(28,6)"/>
<path d="M0 0 C0.33 1.32 0.66 2.64 1 4 C-2.3 4.33 -5.6 4.66 -9 5 C-8.67 3.68 -8.34 2.36 -8 1 C-5.07175348 0.02391783 -3.04386724 -0.08226668 0 0 Z " fill="#CDA795" transform="translate(27,5)"/>
<path d="M0 0 C2.31 0 4.62 0 7 0 C6.67 1.65 6.34 3.3 6 5 C6.99 5.33 7.98 5.66 9 6 C6.29120665 7.35439668 3.99066732 7.06501451 1 7 C1.66 6.67 2.32 6.34 3 6 C3 4.68 3 3.36 3 2 C2.01 1.34 1.02 0.68 0 0 Z " fill="#6E594C" transform="translate(20,24)"/>
<path d="M0 0 C0.66 0 1.32 0 2 0 C1.00475043 4.64449799 0.03925611 7.30716259 -4 10 C-4.99 10 -5.98 10 -7 10 C-7 9.34 -7 8.68 -7 8 C-6.34 8 -5.68 8 -5 8 C-4.67 7.01 -4.34 6.02 -4 5 C-3.34 5 -2.68 5 -2 5 C-1.34 3.35 -0.68 1.7 0 0 Z " fill="#B88A78" transform="translate(30,13)"/>
<path d="M0 0 C4.29 0.33 8.58 0.66 13 1 C12.67 1.99 12.34 2.98 12 4 C3.73913043 4.15886288 3.73913043 4.15886288 1 3 C0.67 2.01 0.34 1.02 0 0 Z " fill="#5A5B5C" transform="translate(31,22)"/>
<path d="M0 0 C0.33 0 0.66 0 1 0 C1 1.65 1 3.3 1 5 C2.32 5.33 3.64 5.66 5 6 C5 6.66 5 7.32 5 8 C3.35 8 1.7 8 0 8 C-0.33 8.66 -0.66 9.32 -1 10 C-1.02689216 8.52093108 -1.04634621 7.04172517 -1.0625 5.5625 C-1.07410156 4.73878906 -1.08570313 3.91507813 -1.09765625 3.06640625 C-1 1 -1 1 0 0 Z " fill="#45332B" transform="translate(14,6)"/>
<path d="M0 0 C0.99 0.33 1.98 0.66 3 1 C2.34 1 1.68 1 1 1 C1.33 2.32 1.66 3.64 2 5 C-0.97 5 -3.94 5 -7 5 C-6.67 4.01 -6.34 3.02 -6 2 C-4.02 2 -2.04 2 0 2 C0 1.34 0 0.68 0 0 Z " fill="#635C5B" transform="translate(14,14)"/>
<path d="M0 0 C0.66 0.66 1.32 1.32 2 2 C-0.56893838 3.28446919 -2.76576337 3.32977144 -5.625 3.5625 C-6.62789062 3.64628906 -7.63078125 3.73007812 -8.6640625 3.81640625 C-9.43492188 3.87699219 -10.20578125 3.93757813 -11 4 C-10.67 3.01 -10.34 2.02 -10 1 C-8.37675914 0.77837671 -6.751279 0.57310197 -5.125 0.375 C-4.22007813 0.25898438 -3.31515625 0.14296875 -2.3828125 0.0234375 C-1.59648437 0.01570313 -0.81015625 0.00796875 0 0 Z " fill="#474948" transform="translate(17,22)"/>
<path d="M0 0 C1.32 0.33 2.64 0.66 4 1 C4 1.99 4 2.98 4 4 C4.99 4.33 5.98 4.66 7 5 C6.67 5.66 6.34 6.32 6 7 C5.34 7 4.68 7 4 7 C4 6.34 4 5.68 4 5 C2.68 4.67 1.36 4.34 0 4 C0 2.68 0 1.36 0 0 Z " fill="#22201D" transform="translate(1,12)"/>
<path d="M0 0 C0.99 0 1.98 0 3 0 C3.33 1.32 3.66 2.64 4 4 C3.34 4 2.68 4 2 4 C2 4.66 2 5.32 2 6 C2.66 6.33 3.32 6.66 4 7 C2.35 7 0.7 7 -1 7 C-1 6.34 -1 5.68 -1 5 C-0.34 5 0.32 5 1 5 C0.67 3.35 0.34 1.7 0 0 Z " fill="#A37A6B" transform="translate(21,17)"/>
<path d="M0 0 C0.99 0 1.98 0 3 0 C3 1.65 3 3.3 3 5 C3.99 5 4.98 5 6 5 C5.67 5.99 5.34 6.98 5 8 C3.68 7.67 2.36 7.34 1 7 C1.33 5.02 1.66 3.04 2 1 C1.34 0.67 0.68 0.34 0 0 Z " fill="#6D605E" transform="translate(30,10)"/>
<path d="M0 0 C2.475 0.495 2.475 0.495 5 1 C5 1.99 5 2.98 5 4 C3.35 4 1.7 4 0 4 C0 2.68 0 1.36 0 0 Z " fill="#131517" transform="translate(39,18)"/>
<path d="M0 0 C0.33 0 0.66 0 1 0 C1 1.65 1 3.3 1 5 C2.98 5.495 2.98 5.495 5 6 C5 6.66 5 7.32 5 8 C3.35 8 1.7 8 0 8 C0 5.36 0 2.72 0 0 Z " fill="#3F403E" transform="translate(0,11)"/>
<path d="M0 0 C0.99 0.33 1.98 0.66 3 1 C3.6875 3.0625 3.6875 3.0625 4 5 C2.02 5 0.04 5 -2 5 C-1.01 4.67 -0.02 4.34 1 4 C1 3.34 1 2.68 1 2 C0.01 1.67 -0.98 1.34 -2 1 C-1.34 0.67 -0.68 0.34 0 0 Z " fill="#2A2828" transform="translate(13,18)"/>
<path d="M0 0 C0.99 0 1.98 0 3 0 C3 1.32 3 2.64 3 4 C1.35 4 -0.3 4 -2 4 C-1.34 2.68 -0.68 1.36 0 0 Z " fill="#6B4D3E" transform="translate(24,9)"/>
</svg>
